{"title":"The Girl Next Door{2004}DVDRip.aaaevilacharya","uid":6078339,"size":723630229,"categoryP":"video","categoryS":"movies","magnet":"?xt=urn:btih:ac457be205810a039fa66d4f739c6265e7c942b2&amp;dn=The+Girl+Next+Door%7B2004%7DDVDRip.aaaevilacharya&amp;tr=udp%3A%2F%2Ftracker.openbittorrent.com%3A80&amp;tr=udp%3A%2F%2Fopen.demonii.com%3A1337&amp;tr=udp%3A%2F%2Ftracker.coppersurfer.tk%3A6969&amp;tr=udp%3A%2F%2Fexodus.desync.com%3A6969","seeders":1,"leechers":0,"uploader":"achaevil","files":-1,"time":1293991516,"description":"General\n\nComplete name                    : The Girl Next Door{2004}DVDRip.aaaevilacharya.mkv\nFormat                           : Matroska\nFile size                        : 690 MiB\nDuration                         : 1h 49mn\nOverall bit rate                 : 882 Kbps\nMovie name                       : aaaevilacharya{TiRG}\n\n\nVideo\nID                               : 1\nFormat                           : MPEG-4 Visual\nFormat profile                   : Advanced Simple@L5\nFormat settings, BVOP            : Yes\nFormat settings, QPel            : No\nFormat settings, GMC             : No warppoints\nFormat settings, Matrix          : Default (H.263)\nCodec ID                         : XVID\nCodec ID/Hint                    : XviD\nDuration                         : 1h 49mn\nBit rate                         : 736 Kbps\nWidth                            : 640 pixels\nHeight                           : 336 pixels\nDisplay aspect ratio             : 2.35:1\nOriginal display aspect ratio    : 5.861\nFrame rate                       : 23.976 fps\nColor space                      : YUV\nChroma subsampling               : 4:2:0\nBit depth                        : 8 bits\nScan type                        : Progressive\nBits/(Pixel*Frame)               : 0.143\nStream size                      : 576 MiB (83%)\nTitle                            : aaaevilacharya{TiRG}\nLanguage                         : English\n\nAudio\nID                               : 2\nFormat                           : MPEG Audio\nFormat version                   : Version 1\nFormat profile                   : Layer 3\nMode                             : Joint stereo\nMode extension                   : MS Stereo\nCodec ID                         : A_MPEG/L3\nCodec ID/Hint                    : MP3\nDuration                         : 1h 49mn\nBit rate mode                    : Variable\nBit rate                         : 128 Kbps\nChannel(s)                       : 2 channels\nSampling rate                    : 48.0 KHz\nStream size                      : 101 MiB (15%)\nTitle                            : aaaevilacharya{TiRG}\nWriting library                  : LAME3.90.\n\nLanguage                         : English\n\n\nSCREENSHOTS\n &lt;a href=&quot;\nhttp://img835.imageshack.us/img835/7067/thegirlnextdooruncovere.jpg&quot; rel=&quot;nofollow&quot; target=&quot;_NEW&quot;&gt;\nhttp://img835.imageshack.us/img835/7067/thegirlnextdooruncovere.jpg&lt;/a&gt; &lt;a href=&quot;\nhttp://img140.imageshack.us/img140/4341/thegirlnextdoor2004dvdr.jpg&quot; rel=&quot;nofollow&quot; target=&quot;_NEW&quot;&gt;\nhttp://img140.imageshack.us/img140/4341/thegirlnextdoor2004dvdr.jpg&lt;/a&gt; &lt;a href=&quot;\nhttp://img189.imageshack.us/img189/4876/thegirlnextdoor2004dvdrl.jpg&quot; rel=&quot;nofollow&quot; target=&quot;_NEW&quot;&gt;\nhttp://img189.imageshack.us/img189/4876/thegirlnextdoor2004dvdrl.jpg&lt;/a&gt; &lt;a href=&quot;\nhttp://img252.imageshack.us/img252/4341/thegirlnextdoor2004dvdr.jpg&quot; rel=&quot;nofollow&quot; target=&quot;_NEW&quot;&gt;\nhttp://img252.imageshack.us/img252/4341/thegirlnextdoor2004dvdr.jpg&lt;/a&gt; &lt;a href=&quot;\nhttp://img841.imageshack.us/img841/4341/thegirlnextdoor2004dvdr.jpg&quot; rel=&quot;nofollow&quot; target=&quot;_NEW&quot;&gt;\nhttp://img841.imageshack.us/img841/4341/thegirlnextdoor2004dvdr.jpg&lt;/a&gt; &lt;a href=&quot;\nhttp://img560.imageshack.us/img560/4341/thegirlnextdoor2004dvdr.jpg&quot; rel=&quot;nofollow&quot; target=&quot;_NEW&quot;&gt;\nhttp://img560.imageshack.us/img560/4341/thegirlnextdoor2004dvdr.jpg&lt;/a&gt; &lt;a href=&quot;\nhttp://img145.imageshack.us/img145/4341/thegirlnextdoor2004dvdr.jpg&quot; rel=&quot;nofollow&quot; target=&quot;_NEW&quot;&gt;\nhttp://img145.imageshack.us/img145/4341/thegirlnextdoor2004dvdr.jpg&lt;/a&gt; &lt;a href=&quot;\nhttp://img33.imageshack.us/img33/4341/thegirlnextdoor2004dvdr.jpg&quot; rel=&quot;nofollow&quot; target=&quot;_NEW&quot;&gt;\nhttp://img33.imageshack.us/img33/4341/thegirlnextdoor2004dvdr.jpg&lt;/a&gt; &lt;a href=&quot;\nhttp://img716.imageshack.us/img716/4341/thegirlnextdoor2004dvdr.jpg&quot; rel=&quot;nofollow&quot; target=&quot;_NEW&quot;&gt;\nhttp://img716.imageshack.us/img716/4341/thegirlnextdoor2004dvdr.jpg&lt;/a&gt; &lt;a href=&quot;\nhttp://img141.imageshack.us/img141/4341/thegirlnextdoor2004dvdr.jpg&quot; rel=&quot;nofollow&quot; target=&quot;_NEW&quot;&gt;\nhttp://img141.imageshack.us/img141/4341/thegirlnextdoor2004dvdr.jpg&lt;/a&gt; &lt;a href=&quot;\nhttp://img16.imageshack.us/img16/4341/thegirlnextdoor2004dvdr.jpg&quot; rel=&quot;nofollow&quot; target=&quot;_NEW&quot;&gt;\nhttp://img16.imageshack.us/img16/4341/thegirlnextdoor2004dvdr.jpg&lt;/a&gt; &lt;a href=&quot;\nhttp://img407.imageshack.us/img407/5183/thegirlnextdoor2004dvdrv.jpg&quot; rel=&quot;nofollow&quot; target=&quot;_NEW&quot;&gt;\nhttp://img407.imageshack.us/img407/5183/thegirlnextdoor2004dvdrv.jpg&lt;/a&gt; &lt;a href=&quot;\nhttp://img833.imageshack.us/img833/4341/thegirlnextdoor2004dvdr.jpg&quot; rel=&quot;nofollow&quot; target=&quot;_NEW&quot;&gt;\nhttp://img833.imageshack.us/img833/4341/thegirlnextdoor2004dvdr.jpg&lt;/a&gt; &lt;a href=&quot;\nhttp://img51.imageshack.us/img51/6060/thegirlnextdoor2004dvdry.jpg&quot; rel=&quot;nofollow&quot; target=&quot;_NEW&quot;&gt;\nhttp://img51.imageshack.us/img51/6060/thegirlnextdoor2004dvdry.jpg&lt;/a&gt;\n","torrent":{"xt":"urn:btih:ac457be205810a039fa66d4f739c6265e7c942b2","amp;dn":"The+Girl+Next+Door%7B2004%7DDVDRip.aaaevilacharya","amp;tr":["udp%3A%2F%2Ftracker.openbittorrent.com%3A80","udp%3A%2F%2Fopen.demonii.com%3A1337","udp%3A%2F%2Ftracker.coppersurfer.tk%3A6969","udp%3A%2F%2Fexodus.desync.com%3A6969"],"infoHash":"ac457be205810a039fa66d4f739c6265e7c942b2","infoHashBuffer":{"type":"Buffer","data":[172,69,123,226,5,129,10,3,159,166,109,79,115,156,98,101,231,201,66,178]},"announce":[],"urlList":[]}}